<svg width="236" height="34" viewBox="0 0 236 34" fill="none" xmlns="http://www.w3.org/2000/svg">
  <path d="m89.2137 20.9804-.007 3.9481c-1.0356-.0318-2.0494-.2314-3.0216-.5948-1.1528-.431-2.1994-1.0734-3.1089-1.9105-.9096-.8351-1.6394-1.8241-2.1667-2.9362-.5451-1.1528-.85-2.3881-.9036-3.672l-.002-.0427.011-14.4814c-.003-.0685-.008-.137-.0149-.2055V1l3.949.0069c.003.0398.0049.0795.0069.1192l-.0238 13.3474.0149 1.2134c.0755 1.5193.7556 2.8707 1.7983 3.8289.9274.852 2.1398 1.3922 3.4674 1.4636l.001.001Z" fill="#fff"/>
  <path fill-rule="evenodd" clip-rule="evenodd" d="M152.389 8.5638c.908.9076 1.612 1.9681 2.092 3.1497.415 1.0235.646 2.098.689 3.1993l.001.011.002.0456v.0133c.003.1043.005.2088.005.3134 0 .1276-.002.2548-.007.3816l-.016 4.3837-.004 3.9589v.5044h-3.937l.003-1.4976c-.613.441-1.274.8066-1.978 1.0925-1.07.4339-2.197.6673-3.352.6951-.122.0059-.244.0079-.366.0079-1.236 0-2.442-.2343-3.582-.697-1.182-.4796-2.242-1.1837-3.151-2.0912-.907-.9086-1.611-1.9691-2.091-3.1507-.463-1.1409-.697-2.3454-.697-3.5816 0-1.2363.234-2.4407.697-3.5826.48-1.1817 1.184-2.2422 2.091-3.1497.909-.9086 1.969-1.6126 3.151-2.0922 1.069-.4339 2.196-.6673 3.352-.6951.121-.0059.243-.0079.365-.0079.099 0 .199.0016.298.0045 1.036.0318 2.05.2229 3.022.5863.637.2383 1.242.5412 1.81.9061.576.3687 1.112.8006 1.603 1.2923Zm-1.168 7.0943-.007-.647c-.076-1.5192-.757-2.8706-1.799-3.8288-.832-.7634-1.892-1.2678-3.058-1.4158a5.63076 5.63076 0 0 0-.47-.0389c-.078-.003-.154-.005-.231-.005-.103 0-.205.003-.308.0089-.018 0-.035.001-.054.0019l-.003.0001c-1.351.0546-2.685.5968-3.713 1.6255-1.053 1.0525-1.633 2.4536-1.633 3.9431 0 1.4894.58 2.8895 1.633 3.942 1.029 1.0288 2.362 1.5709 3.713 1.6255.178.008.357.006.536-.0039.01 0 .02-.0005.03-.001.01-.0005.02-.001.03-.001 1.35-.0546 2.684-.5968 3.712-1.6255.968-.9668 1.536-2.2268 1.622-3.5801Z" fill="#fff"/>
  <path d="M180.866 9.7528v.0129a5.6086 5.6086 0 0 0-.365-.0119c-.058 0-.115.001-.173.003.102-.006.205-.009.308-.009.076 0 .153.002.23.005ZM180.807 20.7053c.02 0 .04-.002.059-.003-.019.002-.039.003-.059.003Z" fill="#fff"/>
  <path fill-rule="evenodd" clip-rule="evenodd" d="M186.183 14.8146c-.131-1.2698-.688-2.4473-1.604-3.3617-1.028-1.0287-2.362-1.5709-3.712-1.6255-.078-.003-.154-.005-.231-.005-.103 0-.205.003-.308.009-.018 0-.035.001-.054.0019l-.003.0001c-1.351.0546-2.685.5967-3.713 1.6255-1.054 1.0525-1.633 2.4536-1.633 3.943 0 1.4895.579 2.8895 1.633 3.9421 1.029 1.0287 2.362 1.5709 3.713 1.6255.178.0079.357.0059.536-.004.01 0 .02-.0005.03-.001.01-.0005.02-.001.03-.001 1.35-.0546 2.683-.5968 3.712-1.6255 1.054-1.0525 1.634-2.4526 1.634-3.942 0-.1732-.008-.3453-.024-.5158a.70408.70408 0 0 1-.006-.0656Zm3.942-.2156c.022.264.033.5299.033.797 0 1.2352-.235 2.4407-.697 3.5816-.48 1.1816-1.184 2.2421-2.092 3.1507-.908.9075-1.969 1.6115-3.15 2.0911-1.07.434-2.197.6673-3.352.6951-.122.006-.244.008-.366.008-1.236 0-2.442-.2344-3.583-.6971-1.181-.4796-2.242-1.1836-3.15-2.0912-.908-.9085-1.612-1.969-2.091-3.1507-.463-1.1409-.697-2.3453-.697-3.5816 0-1.2362.234-2.4407.697-3.5826.479-1.1816 1.183-2.2421 2.091-3.1497.908-.9085 1.969-1.6126 3.15-2.0922 1.07-.4339 2.197-.6672 3.353-.695.121-.006.243-.008.365-.008 1.236 0 2.442.2344 3.583.6971.701.2847 1.36.6484 1.969 1.0871l.006-7.3676a3.55153 3.55153 0 0 0-.015-.2056V0l3.949.007c.003.0397.005.0794.007.1191l-.024 13.3475.014 1.1254Z" fill="#fff"/>
  <path d="M180.328 9.7568c-.019.001-.038.0022-.057.0032.02-.002.039-.0032.057-.0032Z" fill="#fff"/>
  <path fill-rule="evenodd" clip-rule="evenodd" d="M208.151 20.8946v3.9242h-5.61v.0039c-1.246-.0685-2.444-.3733-3.565-.9085-1.112-.5293-2.098-1.2611-2.931-2.1726-.834-.9116-1.474-1.9601-1.903-3.114-.395-1.0664-.593-2.1805-.592-3.3175 0-1.2362.235-2.4397.697-3.5816.48-1.1816 1.184-2.2431 2.092-3.1497.908-.9085 1.969-1.6135 3.15-2.0922.931-.3783 1.905-.6033 2.903-.6733.225-.0158.451-.0237.678-.0237h.001c.971 0 1.906.1415 2.81.4216.26.0804.517.1722.772.2754 1.181.4787 2.242 1.1837 3.15 2.0922.908.9066 1.612 1.9681 2.091 3.1497.463 1.1416.697 2.3447.697 3.5805v.0011l-.003 1.9701c-.039.003-.079.0049-.119.0069l-13.347-.0238-1.214.0149a.77627.77627 0 0 1-.055.001c.759 2.0116 2.653 3.4885 4.93 3.6064l5.368.009Zm.14-7.5515-10.437-.008c.276-.7298.706-1.3991 1.275-1.967.162-.1621.331-.3121.507-.4499.703-.5512 1.511-.9096 2.349-1.0747.358-.0705.722-.1058 1.086-.1059.363.0001.728.0354 1.086.1059.839.1654 1.648.5244 2.352 1.0768.174.1374.343.2865.504.4478.571.57 1.002 1.2421 1.278 1.975Z" fill="#fff"/>
  <path d="M216.231 24.4252h3.957v-9.4421c.082-1.2641.59-2.4556 1.46-3.4019 1.007-1.0963 2.382-1.7347 3.868-1.7983 3.06-.1291 5.655 2.2441 5.805 5.2975l-.01 9.3448h3.947l.008-9.4729c-.055-1.2829-.359-2.5182-.905-3.672-.528-1.1121-1.257-2.1001-2.166-2.9362-.91-.8361-1.956-1.4795-3.109-1.9105-1.196-.4468-2.452-.6454-3.735-.5918-1.284.0537-2.519.3585-3.672.9046-1.113.5273-2.101 1.2561-2.937 2.1657-.836.9095-1.478 1.9551-1.91 3.109-.357.9532-.555 1.9472-.594 2.962l-.007 9.4421Z" fill="#fff"/>
  <path d="M227.735 20.3537h-3.972v4.0711h3.972v-4.0711Z" fill="url(#a)"/>
  <path d="M168.58 9.3206c-1.326.0715-2.54.6117-3.467 1.4637-1.043.9582-1.723 2.3096-1.798 3.8288l-.014 1.2134.014 8.6011-3.936-.006v-.7993l-.009-9.0936.002-.0427c.054-1.2839.359-2.5191.904-3.672.528-1.1131 1.256-2.1011 2.167-2.9362.909-.837 1.956-1.4795 3.109-1.9104.972-.3634 1.986-.563 3.021-.5948l.007 3.948Z" fill="#fff"/>
  <path fill-rule="evenodd" clip-rule="evenodd" d="M105.601 21.105v3.9242h-5.61v.0039c-1.246-.0685-2.444-.3733-3.565-.9085-1.112-.5293-2.098-1.2611-2.931-2.1726-.834-.9116-1.474-1.9601-1.903-3.114-.395-1.0664-.593-2.1805-.592-3.3175 0-1.2362.235-2.4397.697-3.5816.48-1.1816 1.184-2.2431 2.092-3.1497.908-.9085 1.969-1.6135 3.15-2.0922.931-.3783 1.905-.6033 2.903-.6733.225-.0158.451-.0237.678-.0237h.001c.971 0 1.906.1415 2.81.4216.26.0804.517.1722.772.2754 1.181.4787 2.242 1.1837 3.15 2.0922.908.9066 1.612 1.9681 2.091 3.1497.463 1.1416.697 2.3447.697 3.5805v.0011l-.003 1.9701c-.039.003-.079.0049-.119.0069l-13.347-.0238-1.214.0149a.77627.77627 0 0 1-.055.001c.759 2.0116 2.653 3.4885 4.93 3.6064l5.368.009Zm.14-7.5515-10.437-.008c.276-.7298.706-1.3991 1.275-1.967.162-.1621.331-.3121.507-.4499.703-.5512 1.511-.9096 2.349-1.0747.358-.0705.722-.1058 1.086-.1059.363.0001.728.0354 1.086.1059.839.1654 1.648.5244 2.352 1.0768.174.1374.343.2865.504.4478.571.57 1.002 1.2421 1.278 1.975ZM73.3899 8.7892c.9075.9076 1.6115 1.9681 2.0911 3.1497.4148 1.0235.6461 2.098.6896 3.1993l.0005.011.002.0456v.0133c.0033.1043.005.2088.005.3134 0 .1276-.0025.2548-.0074.3816l-.0154 4.3837-.004 3.9589v.5044h-3.9371l.0025-1.4976c-.6118.441-1.2731.8066-1.9775 1.0925-1.0695.4339-2.1965.6673-3.3523.6951-.1211.0059-.2433.0079-.3654.0079-1.2362 0-2.4417-.2343-3.5826-.697-1.1816-.4796-2.2421-1.1837-3.1507-2.0912-.9076-.9086-1.6116-1.9691-2.0912-3.1507-.4627-1.1409-.697-2.3454-.697-3.5816 0-1.2363.2343-2.4407.697-3.5826.4796-1.1817 1.1836-2.2422 2.0912-3.1497.9086-.9086 1.9691-1.6126 3.1507-2.0922 1.0694-.4339 2.1964-.6673 3.3522-.6951.1212-.0059.2433-.0079.3655-.0079.0994 0 .1987.0016.2978.0045 1.0357.0318 2.0495.2229 3.0216.5863.6375.2383 1.2425.5412 1.8099.9061.5759.3687 1.1122.8006 1.604 1.2923Zm-1.1683 7.0943-.0074-.647c-.0755-1.5192-.7567-2.8706-1.7993-3.8288-.831-.7634-1.8916-1.2678-3.0574-1.4158a5.57533 5.57533 0 0 0-.4706-.0389c-.0774-.003-.1539-.005-.2303-.005-.1033 0-.2056.003-.3079.0089-.0178 0-.0358.001-.0547.0019l-.0029.0001c-1.3504.0546-2.6849.5968-3.7127 1.6255-1.0535 1.0525-1.6334 2.4536-1.6334 3.9431 0 1.4894.5799 2.8895 1.6334 3.942 1.0288 1.0288 2.3623 1.5709 3.7127 1.6255.1788.008.3575.006.5362-.0039.01 0 .0199-.0005.0298-.001.01-.0005.0199-.001.0298-.001 1.3505-.0546 2.684-.5968 3.7127-1.6255.9678-.9668 1.5358-2.2268 1.622-3.5801ZM18.5137 20.2815c.2631-.4546.4885-.9315.6742-1.4285.4468-1.1946.6464-2.4517.5918-3.7346-.0546-1.2839-.3584-2.5191-.9046-3.6719-.5262-1.1132-1.2551-2.1012-2.1646-2.9372-.429-.3952-.8897-.7458-1.3772-1.0526v5.7314c.2958.6405.4736 1.3495.5053 2.0972.0626 1.4864-.4586 2.9113-1.4665 4.0076-1.0078 1.0962-2.3821 1.7347-3.8686 1.7982-3.05934.1291-5.65495-2.2441-5.80485-5.2974L4.70855 6H.76145l-.0079 9.8364.001.0427v.0426c.0546 1.283.3585 2.5182.9046 3.672.5273 1.1122 1.2561 2.1002 2.1656 2.9362.9096.8361 1.9562 1.4796 3.109 1.9105 1.1956.4468 2.45171.6454 3.73465.5918 1.2839-.0536 2.5191-.3585 3.6719-.9046.5304-.2512 1.0324-.5482 1.5033-.8888.4707.341.9731.6384 1.5043.8899 1.1529.5461 2.3881.8511 3.672.9047 1.2829.0536 2.539-.1451 3.7346-.5919 1.1528-.431 2.1994-1.0744 3.1089-1.9104.9096-.836 1.6384-1.8242 2.1657-2.9363.5461-1.1538.85-2.389.9056-3.6719l-.008-9.9218h-3.947l.0099 9.7937c-.1499 3.0534-2.7455 5.4266-5.8048 5.2975-.9602-.0411-1.8728-.3218-2.6711-.8108Z" fill="#fff"/>
  <path d="M35 24.592h3.957v-9.4422c.082-1.2641.59-2.4556 1.46-3.4019 1.007-1.0963 2.382-1.7346 3.868-1.79825 3.06-.1291 5.655 2.24405 5.805 5.29745l-.01 9.3449h3.947l.008-9.473c-.055-1.2829-.359-2.5182-.905-3.672-.528-1.1121-1.257-2.10005-2.166-2.93615-.91-.8361-1.956-1.4795-3.109-1.9105-1.196-.4468-2.452-.6454-3.735-.5918-1.284.0537-2.519.3585-3.672.9046-1.113.5273-2.101 1.2561-2.937 2.1657-.836.9095-1.478 1.95505-1.91 3.10895-.357.9532-.555 1.9472-.594 2.962L35 24.592Z" fill="#fff"/>
  <path fill="#fff" d="M35 0h4v25h-4zM123.868 10.219c-.014-.0009-.027-.0018-.041-.0018.02 0 .04.001.059.003l-.018-.0012Z"/>
  <path fill-rule="evenodd" clip-rule="evenodd" d="M133.145 16.3235c.022-.264.033-.5299.033-.797 0-1.2352-.235-2.4407-.697-3.5816-.48-1.1816-1.184-2.2421-2.092-3.1507-.908-.9075-1.969-1.61151-3.15-2.09111-1.07-.434-2.197-.66729-3.352-.69509-.122-.006-.244-.008-.366-.008-1.236 0-2.442.23439-3.583.69709-1.181.4796-2.242 1.18361-3.15 2.09121-.908.9085-1.612 1.969-2.091 3.1507-.463 1.1409-.697 2.3453-.697 3.5816 0 1.2362.234 2.4407.697 3.5826.479 1.1816 1.183 2.2421 2.091 3.1497.908.9085 1.969 1.6126 3.15 2.0922 1.07.4339 2.197.6672 3.353.695.121.006.243.008.365.008 1.236 0 2.442-.2344 3.583-.6971.701-.2847 1.36-.6484 1.969-1.0871l-.009 1.0642c-.003.0685-.016.2831-.023.3516l-.014.2203c0 2.8474-2.424 5.1-5.662 5.1-1.725 0-2.782-.4073-3.543-.9765-.805-.6023-1.894-1.5235-1.894-2.9179h-3.719c0 3.3944 1.683 4.9732 3.217 6.1209C119.14 33.4073 121.083 34 123.5 34c5.026 0 9.613-3.6336 9.65-9.0343.001-.0258.002-.0587.002-.0894.001-.033.002-.0636.003-.0799l-.024-7.3475.014-1.1254Zm-3.942-.2156c-.131 1.2698-.688 2.4473-1.604 3.3617-1.028 1.0287-2.362 1.5709-3.712 1.6255-.078.003-.154.005-.231.005-.103 0-.205-.003-.308-.009-.015 0-.03-.0007-.045-.0015l-.009-.0004-.003-.0001c-1.351-.0546-2.685-.5967-3.713-1.6255-1.054-1.0525-1.633-2.4536-1.633-3.943 0-1.4895.579-2.8895 1.633-3.9421 1.029-1.0287 2.362-1.5709 3.713-1.62551.178-.0079.357-.00589.536.00401.01 0 .02.0005.03.001.01.0005.02.00099.03.00099 1.35.05461 2.683.59681 3.712 1.62551 1.054 1.0525 1.634 2.4526 1.634 3.942 0 .1732-.008.3453-.024.5158a.70408.70408 0 0 0-.006.0656Z" fill="#fff"/>
  <defs>
    <linearGradient id="a" x1="136" y1="0" x2="222.467" y2="47.879" gradientUnits="userSpaceOnUse">
      <stop stop-color="#A107EA"/>
      <stop offset="1" stop-color="#5000B5"/>
    </linearGradient>
  </defs>
</svg>